<mxfile host="Electron" agent="Mozilla/5.0 (Windows NT 10.0; Win64; x64) AppleWebKit/537.36 (KHTML, like Gecko) draw.io/24.7.17 Chrome/128.0.6613.36 Electron/32.0.1 Safari/537.36" version="24.7.17" pages="2">
  <diagram name="第 1 页" id="6pohMXJggKobLqlMC2WN">
    <mxGraphModel dx="350" dy="255" grid="1" gridSize="10" guides="1" tooltips="1" connect="1" arrows="1" fold="1" page="1" pageScale="1" pageWidth="827" pageHeight="1169" math="0" shadow="0">
      <root>
        <mxCell id="0" />
        <mxCell id="1" parent="0" />
        <mxCell id="MUn7b7GWsYOS9qI_fvCn-12" value="" style="group;rotation=0;" vertex="1" connectable="0" parent="1">
          <mxGeometry x="370" y="350" width="176.5" height="70" as="geometry" />
        </mxCell>
        <mxCell id="DS8yYGZe9rZjukdUGrn_-3" value="" style="shape=trapezoid;perimeter=trapezoidPerimeter;whiteSpace=wrap;html=1;fixedSize=1;size=20;rounded=1;rotation=-180;fillColor=#999999;gradientColor=none;movable=1;resizable=1;rotatable=1;deletable=1;editable=1;locked=0;connectable=1;" vertex="1" parent="MUn7b7GWsYOS9qI_fvCn-12">
          <mxGeometry width="176.5" height="70" as="geometry" />
        </mxCell>
        <mxCell id="DS8yYGZe9rZjukdUGrn_-4" value="" style="ellipse;whiteSpace=wrap;html=1;aspect=fixed;movable=1;resizable=1;rotatable=1;deletable=1;editable=1;locked=0;connectable=1;rotation=0;" vertex="1" parent="MUn7b7GWsYOS9qI_fvCn-12">
          <mxGeometry x="140" y="10" width="20" height="20" as="geometry" />
        </mxCell>
        <mxCell id="DS8yYGZe9rZjukdUGrn_-5" value="" style="ellipse;whiteSpace=wrap;html=1;aspect=fixed;movable=1;resizable=1;rotatable=1;deletable=1;editable=1;locked=0;connectable=1;rotation=0;" vertex="1" parent="MUn7b7GWsYOS9qI_fvCn-12">
          <mxGeometry x="110" y="10" width="20" height="20" as="geometry" />
        </mxCell>
        <mxCell id="DS8yYGZe9rZjukdUGrn_-6" value="" style="ellipse;whiteSpace=wrap;html=1;aspect=fixed;movable=1;resizable=1;rotatable=1;deletable=1;editable=1;locked=0;connectable=1;rotation=0;" vertex="1" parent="MUn7b7GWsYOS9qI_fvCn-12">
          <mxGeometry x="80" y="10" width="20" height="20" as="geometry" />
        </mxCell>
        <mxCell id="DS8yYGZe9rZjukdUGrn_-7" value="" style="ellipse;whiteSpace=wrap;html=1;aspect=fixed;movable=1;resizable=1;rotatable=1;deletable=1;editable=1;locked=0;connectable=1;rotation=0;" vertex="1" parent="MUn7b7GWsYOS9qI_fvCn-12">
          <mxGeometry x="20" y="10" width="20" height="20" as="geometry" />
        </mxCell>
        <mxCell id="DS8yYGZe9rZjukdUGrn_-8" value="" style="ellipse;whiteSpace=wrap;html=1;aspect=fixed;movable=1;resizable=1;rotatable=1;deletable=1;editable=1;locked=0;connectable=1;rotation=0;" vertex="1" parent="MUn7b7GWsYOS9qI_fvCn-12">
          <mxGeometry x="50" y="10" width="20" height="20" as="geometry" />
        </mxCell>
        <mxCell id="DS8yYGZe9rZjukdUGrn_-10" value="" style="ellipse;whiteSpace=wrap;html=1;aspect=fixed;movable=1;resizable=1;rotatable=1;deletable=1;editable=1;locked=0;connectable=1;rotation=0;" vertex="1" parent="MUn7b7GWsYOS9qI_fvCn-12">
          <mxGeometry x="34" y="40" width="20" height="20" as="geometry" />
        </mxCell>
        <mxCell id="DS8yYGZe9rZjukdUGrn_-11" value="" style="ellipse;whiteSpace=wrap;html=1;aspect=fixed;movable=1;resizable=1;rotatable=1;deletable=1;editable=1;locked=0;connectable=1;rotation=0;" vertex="1" parent="MUn7b7GWsYOS9qI_fvCn-12">
          <mxGeometry x="65" y="40" width="20" height="20" as="geometry" />
        </mxCell>
        <mxCell id="DS8yYGZe9rZjukdUGrn_-12" value="" style="ellipse;whiteSpace=wrap;html=1;aspect=fixed;movable=1;resizable=1;rotatable=1;deletable=1;editable=1;locked=0;connectable=1;rotation=0;" vertex="1" parent="MUn7b7GWsYOS9qI_fvCn-12">
          <mxGeometry x="95" y="40" width="20" height="20" as="geometry" />
        </mxCell>
        <mxCell id="DS8yYGZe9rZjukdUGrn_-13" value="" style="ellipse;whiteSpace=wrap;html=1;aspect=fixed;movable=1;resizable=1;rotatable=1;deletable=1;editable=1;locked=0;connectable=1;rotation=0;" vertex="1" parent="MUn7b7GWsYOS9qI_fvCn-12">
          <mxGeometry x="125" y="40" width="20" height="20" as="geometry" />
        </mxCell>
        <mxCell id="MUn7b7GWsYOS9qI_fvCn-19" value="" style="endArrow=none;html=1;rounded=0;" edge="1" parent="1">
          <mxGeometry width="50" height="50" relative="1" as="geometry">
            <mxPoint x="490" y="358" as="sourcePoint" />
            <mxPoint x="490" y="338" as="targetPoint" />
          </mxGeometry>
        </mxCell>
        <mxCell id="MUn7b7GWsYOS9qI_fvCn-20" value="data" style="text;html=1;align=center;verticalAlign=middle;resizable=0;points=[];autosize=1;strokeColor=none;fillColor=none;" vertex="1" parent="1">
          <mxGeometry x="465" y="317" width="50" height="30" as="geometry" />
        </mxCell>
        <mxCell id="MUn7b7GWsYOS9qI_fvCn-22" value="" style="endArrow=none;html=1;rounded=0;exitX=0.5;exitY=0;exitDx=0;exitDy=0;" edge="1" parent="1">
          <mxGeometry width="50" height="50" relative="1" as="geometry">
            <mxPoint x="460" y="358" as="sourcePoint" />
            <mxPoint x="460" y="338" as="targetPoint" />
          </mxGeometry>
        </mxCell>
        <mxCell id="MUn7b7GWsYOS9qI_fvCn-23" value="load" style="text;html=1;align=center;verticalAlign=middle;resizable=0;points=[];autosize=1;strokeColor=none;fillColor=none;" vertex="1" parent="1">
          <mxGeometry x="435.25" y="317" width="50" height="30" as="geometry" />
        </mxCell>
        <mxCell id="MUn7b7GWsYOS9qI_fvCn-24" value="" style="endArrow=none;html=1;rounded=0;exitX=0.5;exitY=0;exitDx=0;exitDy=0;" edge="1" parent="1">
          <mxGeometry width="50" height="50" relative="1" as="geometry">
            <mxPoint x="430" y="358" as="sourcePoint" />
            <mxPoint x="430" y="338" as="targetPoint" />
          </mxGeometry>
        </mxCell>
        <mxCell id="MUn7b7GWsYOS9qI_fvCn-25" value="clk" style="text;html=1;align=center;verticalAlign=middle;resizable=0;points=[];autosize=1;strokeColor=none;fillColor=none;" vertex="1" parent="1">
          <mxGeometry x="410" y="317" width="40" height="30" as="geometry" />
        </mxCell>
        <mxCell id="MUn7b7GWsYOS9qI_fvCn-26" value="" style="endArrow=none;html=1;rounded=0;entryX=0.5;entryY=1;entryDx=0;entryDy=0;" edge="1" parent="1">
          <mxGeometry width="50" height="50" relative="1" as="geometry">
            <mxPoint x="505" y="432" as="sourcePoint" />
            <mxPoint x="505" y="412" as="targetPoint" />
          </mxGeometry>
        </mxCell>
        <mxCell id="MUn7b7GWsYOS9qI_fvCn-27" value="+5v" style="text;html=1;align=center;verticalAlign=middle;resizable=0;points=[];autosize=1;strokeColor=none;fillColor=none;" vertex="1" parent="1">
          <mxGeometry x="485.25" y="422" width="40" height="30" as="geometry" />
        </mxCell>
        <mxCell id="MUn7b7GWsYOS9qI_fvCn-28" value="" style="endArrow=none;html=1;rounded=0;entryX=0.5;entryY=1;entryDx=0;entryDy=0;" edge="1" parent="1">
          <mxGeometry width="50" height="50" relative="1" as="geometry">
            <mxPoint x="445" y="432" as="sourcePoint" />
            <mxPoint x="445" y="412" as="targetPoint" />
          </mxGeometry>
        </mxCell>
        <mxCell id="MUn7b7GWsYOS9qI_fvCn-29" value="GND" style="text;html=1;align=center;verticalAlign=middle;resizable=0;points=[];autosize=1;strokeColor=none;fillColor=none;" vertex="1" parent="1">
          <mxGeometry x="420" y="422" width="50" height="30" as="geometry" />
        </mxCell>
      </root>
    </mxGraphModel>
  </diagram>
  <diagram id="f2yqXVg1f9Dhq0eFXAkA" name="第 2 页">
    <mxGraphModel dx="1050" dy="1934" grid="1" gridSize="10" guides="1" tooltips="1" connect="1" arrows="1" fold="1" page="1" pageScale="1" pageWidth="827" pageHeight="1169" math="0" shadow="0">
      <root>
        <mxCell id="0" />
        <mxCell id="1" parent="0" />
        <mxCell id="w9zvhFrRUkSbMvIO4Fyl-1" value="" style="rounded=0;whiteSpace=wrap;html=1;fillColor=none;strokeColor=none;" vertex="1" parent="1">
          <mxGeometry x="91" y="-120.5" width="540" height="590" as="geometry" />
        </mxCell>
        <mxCell id="qzZe1a0zq-kXuJzSz_cr-48" style="edgeStyle=orthogonalEdgeStyle;rounded=0;orthogonalLoop=1;jettySize=auto;html=1;strokeWidth=2;" edge="1" parent="1" source="qzZe1a0zq-kXuJzSz_cr-23">
          <mxGeometry relative="1" as="geometry">
            <mxPoint x="440" y="190" as="targetPoint" />
          </mxGeometry>
        </mxCell>
        <mxCell id="qzZe1a0zq-kXuJzSz_cr-23" value="&lt;span style=&quot;font-size: 18px;&quot;&gt;&lt;b&gt;串行发送模式&lt;/b&gt;&lt;/span&gt;" style="rounded=1;whiteSpace=wrap;html=1;strokeWidth=2;fillColor=#D0EBED;" vertex="1" parent="1">
          <mxGeometry x="380" y="90" width="120" height="60" as="geometry" />
        </mxCell>
        <mxCell id="qzZe1a0zq-kXuJzSz_cr-24" value="&lt;span style=&quot;font-size: 18px;&quot;&gt;&lt;b&gt;等待模式&lt;/b&gt;&lt;/span&gt;" style="rounded=1;whiteSpace=wrap;html=1;strokeWidth=2;fillColor=#D0EBED;" vertex="1" parent="1">
          <mxGeometry x="220" y="90" width="120" height="60" as="geometry" />
        </mxCell>
        <mxCell id="qzZe1a0zq-kXuJzSz_cr-33" style="edgeStyle=orthogonalEdgeStyle;rounded=0;orthogonalLoop=1;jettySize=auto;html=1;strokeWidth=2;" edge="1" parent="1" source="qzZe1a0zq-kXuJzSz_cr-26" target="qzZe1a0zq-kXuJzSz_cr-34">
          <mxGeometry relative="1" as="geometry">
            <mxPoint x="365" y="-29.999999999999773" as="targetPoint" />
          </mxGeometry>
        </mxCell>
        <mxCell id="qzZe1a0zq-kXuJzSz_cr-26" value="&lt;b&gt;&lt;font style=&quot;font-size: 18px;&quot;&gt;load&lt;/font&gt;&lt;/b&gt;" style="shape=parallelogram;html=1;strokeWidth=2;perimeter=parallelogramPerimeter;whiteSpace=wrap;rounded=1;arcSize=12;size=0.23;fillColor=#FFD269;" vertex="1" parent="1">
          <mxGeometry x="286" y="-120" width="150" height="60" as="geometry" />
        </mxCell>
        <mxCell id="qzZe1a0zq-kXuJzSz_cr-29" value="&lt;b&gt;&lt;font style=&quot;font-size: 18px;&quot;&gt;Yes&lt;/font&gt;&lt;/b&gt;" style="text;html=1;align=center;verticalAlign=middle;resizable=0;points=[];autosize=1;strokeColor=none;fillColor=none;" vertex="1" parent="1">
          <mxGeometry x="280" y="40" width="50" height="40" as="geometry" />
        </mxCell>
        <mxCell id="qzZe1a0zq-kXuJzSz_cr-35" style="edgeStyle=orthogonalEdgeStyle;rounded=0;orthogonalLoop=1;jettySize=auto;html=1;entryX=0.5;entryY=0;entryDx=0;entryDy=0;exitX=0.5;exitY=1;exitDx=0;exitDy=0;exitPerimeter=0;strokeWidth=2;" edge="1" parent="1" source="qzZe1a0zq-kXuJzSz_cr-34" target="qzZe1a0zq-kXuJzSz_cr-24">
          <mxGeometry relative="1" as="geometry">
            <mxPoint x="365" y="65" as="sourcePoint" />
            <Array as="points">
              <mxPoint x="361" y="70" />
              <mxPoint x="280" y="70" />
            </Array>
          </mxGeometry>
        </mxCell>
        <mxCell id="qzZe1a0zq-kXuJzSz_cr-36" style="edgeStyle=orthogonalEdgeStyle;rounded=0;orthogonalLoop=1;jettySize=auto;html=1;exitX=0.5;exitY=1;exitDx=0;exitDy=0;exitPerimeter=0;entryX=0.5;entryY=0;entryDx=0;entryDy=0;strokeWidth=2;" edge="1" parent="1" source="qzZe1a0zq-kXuJzSz_cr-34" target="qzZe1a0zq-kXuJzSz_cr-23">
          <mxGeometry relative="1" as="geometry">
            <Array as="points">
              <mxPoint x="361" y="70" />
              <mxPoint x="440" y="70" />
            </Array>
          </mxGeometry>
        </mxCell>
        <mxCell id="qzZe1a0zq-kXuJzSz_cr-34" value="&lt;b&gt;&lt;font style=&quot;font-size: 18px;&quot;&gt;load = 1&lt;/font&gt;&lt;/b&gt;" style="strokeWidth=2;html=1;shape=mxgraph.flowchart.decision;whiteSpace=wrap;fillColor=#AAC0E6;" vertex="1" parent="1">
          <mxGeometry x="296" y="-20" width="130" height="70" as="geometry" />
        </mxCell>
        <mxCell id="qzZe1a0zq-kXuJzSz_cr-37" value="&lt;span style=&quot;font-size: 18px;&quot;&gt;&lt;b&gt;No&lt;/b&gt;&lt;/span&gt;" style="text;html=1;align=center;verticalAlign=middle;resizable=0;points=[];autosize=1;strokeColor=none;fillColor=none;" vertex="1" parent="1">
          <mxGeometry x="389" y="40" width="50" height="40" as="geometry" />
        </mxCell>
        <mxCell id="qzZe1a0zq-kXuJzSz_cr-40" value="" style="strokeWidth=2;html=1;shape=mxgraph.flowchart.annotation_2;align=left;labelPosition=right;pointerEvents=1;" vertex="1" parent="1">
          <mxGeometry x="500" y="94" width="50" height="50" as="geometry" />
        </mxCell>
        <mxCell id="qzZe1a0zq-kXuJzSz_cr-41" value="&lt;font style=&quot;font-size: 14px;&quot;&gt;&lt;font style=&quot;&quot;&gt;准备串行&lt;/font&gt;&lt;font style=&quot;background-color: initial;&quot;&gt;发&lt;/font&gt;&lt;span style=&quot;background-color: initial;&quot;&gt;送&lt;/span&gt;&lt;/font&gt;&lt;div&gt;&lt;span style=&quot;background-color: initial;&quot;&gt;&lt;font style=&quot;font-size: 14px;&quot;&gt;按键状态&lt;/font&gt;&lt;/span&gt;&lt;/div&gt;" style="text;html=1;align=left;verticalAlign=middle;resizable=0;points=[];autosize=1;strokeColor=none;fillColor=none;" vertex="1" parent="1">
          <mxGeometry x="540" y="95" width="110" height="50" as="geometry" />
        </mxCell>
        <mxCell id="qzZe1a0zq-kXuJzSz_cr-43" value="" style="strokeWidth=2;html=1;shape=mxgraph.flowchart.annotation_2;align=left;labelPosition=right;pointerEvents=1;rotation=90;" vertex="1" parent="1">
          <mxGeometry x="255" y="111" width="50" height="127" as="geometry" />
        </mxCell>
        <mxCell id="qzZe1a0zq-kXuJzSz_cr-44" value="&lt;font style=&quot;font-size: 14px;&quot;&gt;记录按键状态到&lt;/font&gt;&lt;div&gt;&lt;font style=&quot;font-size: 14px;&quot;&gt;移位寄存器&lt;/font&gt;&lt;/div&gt;" style="text;html=1;align=center;verticalAlign=middle;resizable=0;points=[];autosize=1;strokeColor=none;fillColor=none;" vertex="1" parent="1">
          <mxGeometry x="220" y="178" width="120" height="50" as="geometry" />
        </mxCell>
        <mxCell id="qzZe1a0zq-kXuJzSz_cr-47" style="edgeStyle=orthogonalEdgeStyle;rounded=0;orthogonalLoop=1;jettySize=auto;html=1;entryX=0;entryY=0.5;entryDx=0;entryDy=0;strokeWidth=2;" edge="1" parent="1">
          <mxGeometry relative="1" as="geometry">
            <mxPoint x="220" y="120" as="sourcePoint" />
            <mxPoint x="305" y="-90" as="targetPoint" />
            <Array as="points">
              <mxPoint x="200" y="120" />
              <mxPoint x="200" y="-90" />
            </Array>
          </mxGeometry>
        </mxCell>
        <mxCell id="qzZe1a0zq-kXuJzSz_cr-50" style="edgeStyle=orthogonalEdgeStyle;rounded=0;orthogonalLoop=1;jettySize=auto;html=1;strokeWidth=2;" edge="1" parent="1" source="qzZe1a0zq-kXuJzSz_cr-49">
          <mxGeometry relative="1" as="geometry">
            <mxPoint x="440" y="280" as="targetPoint" />
          </mxGeometry>
        </mxCell>
        <mxCell id="qzZe1a0zq-kXuJzSz_cr-49" value="&lt;b&gt;&lt;font style=&quot;font-size: 18px;&quot;&gt;clk&lt;/font&gt;&lt;/b&gt;" style="shape=parallelogram;html=1;strokeWidth=2;perimeter=parallelogramPerimeter;whiteSpace=wrap;rounded=1;arcSize=12;size=0.23;fillColor=#FFD269;" vertex="1" parent="1">
          <mxGeometry x="365" y="190" width="150" height="60" as="geometry" />
        </mxCell>
        <mxCell id="qzZe1a0zq-kXuJzSz_cr-52" style="edgeStyle=orthogonalEdgeStyle;rounded=0;orthogonalLoop=1;jettySize=auto;html=1;entryX=1;entryY=0.5;entryDx=0;entryDy=0;strokeWidth=2;" edge="1" parent="1" source="qzZe1a0zq-kXuJzSz_cr-51" target="qzZe1a0zq-kXuJzSz_cr-49">
          <mxGeometry relative="1" as="geometry">
            <mxPoint x="570" y="210" as="targetPoint" />
            <Array as="points">
              <mxPoint x="550" y="315" />
              <mxPoint x="550" y="220" />
            </Array>
          </mxGeometry>
        </mxCell>
        <mxCell id="qzZe1a0zq-kXuJzSz_cr-53" style="edgeStyle=orthogonalEdgeStyle;rounded=0;orthogonalLoop=1;jettySize=auto;html=1;strokeWidth=2;" edge="1" parent="1" source="qzZe1a0zq-kXuJzSz_cr-51">
          <mxGeometry relative="1" as="geometry">
            <mxPoint x="440" y="390" as="targetPoint" />
          </mxGeometry>
        </mxCell>
        <mxCell id="qzZe1a0zq-kXuJzSz_cr-51" value="&lt;b&gt;&lt;font style=&quot;font-size: 18px;&quot;&gt;clk = 1&lt;/font&gt;&lt;/b&gt;" style="strokeWidth=2;html=1;shape=mxgraph.flowchart.decision;whiteSpace=wrap;fillColor=#AAC0E6;" vertex="1" parent="1">
          <mxGeometry x="375" y="280" width="130" height="70" as="geometry" />
        </mxCell>
        <mxCell id="qzZe1a0zq-kXuJzSz_cr-54" value="&lt;font style=&quot;font-size: 16px;&quot;&gt;&lt;b&gt;从data&lt;/b&gt;&lt;/font&gt;&lt;b style=&quot;font-size: 16px; background-color: initial;&quot;&gt;串行&lt;span style=&quot;background-color: initial;&quot;&gt;发送&lt;/span&gt;&lt;/b&gt;&lt;div&gt;&lt;b style=&quot;font-size: medium; background-color: initial;&quot;&gt;按键状态&lt;/b&gt;&lt;/div&gt;" style="rounded=1;whiteSpace=wrap;html=1;strokeWidth=2;fillColor=#D0EBED;gradientColor=none;" vertex="1" parent="1">
          <mxGeometry x="380" y="390" width="120" height="60" as="geometry" />
        </mxCell>
      </root>
    </mxGraphModel>
  </diagram>
</mxfile>
